<svg width="255" height="190" viewBox="0 0 255 190" fill="none" xmlns="http://www.w3.org/2000/svg">
<rect x="0.5" y="0.5" width="81" height="59" rx="3.5" fill="#F9F9F9"/>
<rect x="0.5" y="0.5" width="81" height="59" rx="3.5" stroke="#F3F3F3"/>
<g clip-path="url(#clip0_782_9090)">
<path d="M29.9474 33.6128C29.6855 33.5229 29.5065 33.4011 29.288 33.1643C28.829 32.6669 28.8037 32.5184 28.8037 30.3095C28.8037 28.1812 28.8364 27.9807 29.2641 27.481C29.8637 26.7805 31.2502 26.8012 31.8423 27.5195C32.2355 27.9965 32.2675 28.2089 32.2675 30.3422C32.2675 32.0305 32.2528 32.3119 32.1498 32.6073C31.9919 33.0597 31.5267 33.4974 31.0546 33.6376C30.6094 33.7698 30.3902 33.7649 29.9474 33.6127L29.9474 33.6128ZM30.7614 32.589C31.0287 32.4864 31.0584 32.2618 31.0584 30.3485C31.0584 29.1276 31.0339 28.4645 30.9846 28.3564C30.8192 27.9935 30.252 27.9935 30.0866 28.3564C30.0373 28.4645 30.0128 29.1276 30.0128 30.3485C30.0128 32.4833 30.04 32.6071 30.5139 32.6245C30.5919 32.6273 30.7032 32.6113 30.7614 32.589ZM33.6648 33.577C33.5707 33.5259 33.4383 33.3726 33.3708 33.2365C33.2567 33.007 33.2464 32.7722 33.2283 29.9991L33.2089 27.0092L34.4568 27.0092L34.4568 29.746C34.4568 32.0884 34.4708 32.4945 34.554 32.5635C34.6988 32.6837 34.9341 32.5957 35.2001 32.3219L35.4371 32.0779L35.4371 27.0092L36.6788 27.0092L36.6788 33.6099L35.4371 33.6099L35.4371 32.9453L35.1267 33.2209C34.956 33.3724 34.7216 33.5367 34.6059 33.5859C34.3363 33.7004 33.8842 33.6961 33.6648 33.577ZM26.0907 31.7962L26.0897 29.9827L25.2822 27.4012L24.4746 24.8198L25.1308 24.801C25.5148 24.7901 25.8034 24.8091 25.8268 24.847C25.8489 24.8827 26.0571 25.6336 26.2897 26.5157C26.5223 27.3978 26.7274 28.1197 26.7456 28.1199C26.7639 28.12 26.9353 27.5246 27.1265 26.7967C27.3178 26.0689 27.5181 25.319 27.5718 25.1302L27.6693 24.7871L28.3579 24.7871C28.9189 24.7871 29.0401 24.804 29.0116 24.878C28.9925 24.9279 28.6217 26.103 28.1877 27.4893L27.3987 30.0097L27.3987 33.6098L26.0916 33.6098L26.0907 31.7962Z" fill="#020617"/>
<path d="M43.0934 36.1564C39.9006 36.0498 39.036 35.8226 38.4482 34.9351C38.2107 34.5766 37.9442 33.7741 37.8593 33.1622C37.5613 31.0143 37.6345 26.5354 37.9927 24.9917C38.3171 23.5937 39.0799 22.9088 40.4716 22.7662C41.8386 22.626 45.4023 22.5497 48.8687 22.5863C52.6109 22.6257 54.3728 22.7058 55.0102 22.8653C56.2572 23.1773 56.8621 24.0958 57.073 25.9971C57.1129 26.3565 57.1619 27.6114 57.1819 28.7857C57.2625 33.5261 56.9059 35.0341 55.5467 35.7C55.0335 35.9515 54.6978 36.0092 53.2473 36.0958C51.6719 36.1898 45.2428 36.2282 43.0934 36.1564ZM44.6641 33.5726C44.7743 33.5155 44.9934 33.3501 45.151 33.2047L45.4376 32.9406L45.4376 33.6108L46.6793 33.6108L46.6793 27.0754L45.4376 27.0754L45.4376 32.0595L45.1522 32.3449C44.8458 32.6514 44.7219 32.6896 44.5601 32.5278C44.47 32.4377 44.4573 32.0948 44.4573 29.7503L44.4573 27.0754L43.2156 27.0754L43.2156 29.9064C43.2156 33.0295 43.2413 33.2766 43.5926 33.5387C43.815 33.7047 44.3745 33.7223 44.6641 33.5726ZM50.6407 33.5515C50.7547 33.482 50.9127 33.2881 51.0001 33.1106C51.1534 32.7993 51.1565 32.7564 51.178 30.6384C51.2015 28.3163 51.1641 27.897 50.8914 27.4263C50.7398 27.1648 50.3784 26.9447 50.1003 26.9447C49.8325 26.9447 49.4488 27.1249 49.1562 27.3879L48.8361 27.6756L48.8361 24.8534L47.6597 24.8534L47.6597 33.6107L48.8361 33.6107L48.8361 33.0074L49.1043 33.2498C49.2519 33.383 49.4652 33.5323 49.5781 33.5815C49.8816 33.7136 50.3988 33.6991 50.6407 33.5515ZM49.0811 32.4854L48.836 32.3434L48.836 28.3353L49.126 28.1814C49.3614 28.0566 49.4507 28.0398 49.5998 28.0921C49.9221 28.2053 49.9568 28.455 49.9345 30.4958L49.9143 32.3151L49.7309 32.4728C49.5065 32.6658 49.3961 32.668 49.0811 32.4854ZM54.5871 33.5399C55.2187 33.2536 55.5031 32.7694 55.5528 31.8958L55.5855 31.3234L54.3256 31.3234L54.3256 31.7113C54.3256 32.1865 54.252 32.394 54.0324 32.5379C53.7849 32.7 53.4773 32.597 53.3292 32.3023C53.2397 32.1245 53.2148 31.9078 53.2148 31.307L53.2146 30.5391L55.5673 30.5391L55.5673 29.5795C55.5673 28.3718 55.4729 27.9869 55.0657 27.534C54.7058 27.1338 54.3203 26.9745 53.7374 26.9852C53.2543 26.994 52.9314 27.1145 52.5923 27.4122C52.0381 27.8989 51.9541 28.3325 51.9872 30.5392C52.0088 31.9729 52.0325 32.3223 52.1256 32.5688C52.2845 32.9898 52.5716 33.3104 52.9659 33.5069C53.4103 33.7282 54.139 33.7431 54.5871 33.5399ZM53.2147 29.0665C53.2147 28.2536 53.4232 27.9763 53.948 28.0916C54.2114 28.1495 54.3257 28.4443 54.3257 29.0666L54.3257 29.5588L53.2147 29.5588L53.2147 29.0666L53.2147 29.0665ZM41.9739 29.853L41.9739 26.0951L43.4117 26.0951L43.4117 24.8534L39.2944 24.8534L39.2944 26.0951L40.6668 26.0951L40.6668 33.6108L41.9739 33.6108L41.9739 29.853Z" fill="#D02726"/>
</g>
<rect x="86.5" y="0.5" width="82" height="59" rx="3.5" fill="#F9F9F9"/>
<rect x="86.5" y="0.5" width="82" height="59" rx="3.5" stroke="#F3F3F3"/>
<g clip-path="url(#clip1_782_9090)">
<path d="M135.362 18.1816L139.124 18.1816L130.904 27.5767L140.575 40.3612L133.003 40.3612L127.072 32.6075L120.287 40.3612L116.522 40.3612L125.314 30.3122L116.037 18.1816L123.801 18.1816L129.162 25.2689L135.362 18.1816ZM134.041 38.1091L136.126 38.1091L122.668 20.3154L120.431 20.3154L134.041 38.1091Z" fill="#020617"/>
</g>
<rect x="173.5" y="0.5" width="81" height="59" rx="3.5" fill="#F9F9F9"/>
<rect x="173.5" y="0.5" width="81" height="59" rx="3.5" stroke="#F3F3F3"/>
<g clip-path="url(#clip2_782_9090)">
<path d="M223.439 17.3213L205.322 17.3213C203.655 17.3213 202.303 18.6732 202.303 20.3408L202.303 38.4578C202.303 40.1254 203.655 41.4773 205.322 41.4773L223.439 41.4773C225.107 41.4773 226.459 40.1254 226.459 38.4578L226.459 20.3408C226.459 18.6732 225.107 17.3213 223.439 17.3213Z" fill="#7B519D"/>
<path fill-rule="evenodd" clip-rule="evenodd" d="M222.206 33.6194C221.63 33.1561 221.015 32.7402 220.41 32.3154C219.202 31.4675 218.098 31.4016 217.197 32.7658C216.691 33.5317 215.983 33.5653 215.243 33.2293C213.201 32.3036 211.625 30.8773 210.701 28.8024C210.293 27.8844 210.298 27.0613 211.254 26.412C211.76 26.0686 212.27 25.6623 212.229 24.912C212.176 23.9337 209.8 20.6643 208.862 20.3192C208.474 20.1764 208.088 20.1857 207.693 20.3184C205.493 21.0581 204.582 22.867 205.455 25.0089C208.058 31.399 212.638 35.8476 218.944 38.5628C219.303 38.7174 219.703 38.7792 219.905 38.8347C221.341 38.8491 223.022 37.466 223.508 36.0933C223.976 34.7728 222.987 34.2486 222.206 33.6194ZM215.136 20.9744C219.745 21.6832 221.871 23.8752 222.458 28.5182C222.513 28.947 222.353 29.5924 222.965 29.6042C223.604 29.6165 223.45 28.9807 223.456 28.5514C223.51 24.1786 219.697 20.1248 215.269 19.9753C214.935 20.0234 214.243 19.745 214.2 20.4937C214.172 20.9986 214.754 20.9156 215.136 20.9744Z" fill="white"/>
<path fill-rule="evenodd" clip-rule="evenodd" d="M216.039 22.2473C215.595 22.1939 215.01 21.985 214.906 22.6002C214.798 23.2459 215.451 23.1804 215.87 23.2742C218.717 23.9105 219.708 24.9468 220.177 27.7709C220.246 28.1827 220.11 28.8235 220.809 28.7173C221.328 28.6383 221.141 28.089 221.184 27.7682C221.207 25.0567 218.883 22.5889 216.039 22.2473Z" fill="white"/>
<path fill-rule="evenodd" clip-rule="evenodd" d="M216.298 24.4643C216.002 24.4717 215.711 24.5037 215.602 24.82C215.439 25.2927 215.783 25.4054 216.133 25.4616C217.301 25.6491 217.915 26.3378 218.032 27.5025C218.063 27.8186 218.264 28.0747 218.569 28.0387C218.992 27.9882 219.031 27.6116 219.018 27.2539C219.039 25.9454 217.56 24.433 216.298 24.4643Z" fill="white"/>
</g>
<rect x="0.5" y="65.5" width="81" height="60" rx="3.5" fill="#F9F9F9"/>
<rect x="0.5" y="65.5" width="81" height="60" rx="3.5" stroke="#F3F3F3"/>
<g clip-path="url(#clip3_782_9090)">
<path d="M41.5285 107.672C48.3043 107.672 53.7972 102.179 53.7972 95.4035C53.7972 88.6277 48.3043 83.1348 41.5285 83.1348C34.7527 83.1348 29.2598 88.6277 29.2598 95.4035C29.2598 102.179 34.7527 107.672 41.5285 107.672Z" fill="#34AADF"/>
<path d="M34.366 95.2973C34.366 95.2973 40.5003 92.7797 42.6278 91.8932C43.4434 91.5387 46.2092 90.404 46.2092 90.404C46.2092 90.404 47.4857 89.9076 47.3793 91.1132C47.3438 91.6096 47.0602 93.347 46.7765 95.2264C46.351 97.8858 45.89 100.793 45.89 100.793C45.89 100.793 45.8191 101.609 45.2163 101.751C44.6135 101.893 43.6207 101.254 43.4434 101.113C43.3015 101.006 40.784 99.4105 39.8621 98.6304C39.6138 98.4177 39.3302 97.9922 39.8975 97.4957C41.174 96.3256 42.6987 94.8718 43.6207 93.9499C44.0462 93.5244 44.4717 92.5315 42.6987 93.7371C40.1812 95.4746 37.6991 97.1057 37.6991 97.1057C37.6991 97.1057 37.1317 97.4603 36.068 97.1411C35.0042 96.822 33.7631 96.3965 33.7631 96.3965C33.7631 96.3965 32.9122 95.8646 34.366 95.2973Z" fill="white"/>
</g>
<rect x="86.5" y="65.5" width="82" height="60" rx="3.5" fill="#F9F9F9"/>
<rect x="86.5" y="65.5" width="82" height="60" rx="3.5" stroke="#F3F3F3"/>
<g clip-path="url(#clip4_782_9090)">
<path d="M127.976 107.896C134.752 107.896 140.244 102.403 140.244 95.6271C140.244 88.8513 134.752 83.3584 127.976 83.3584C121.2 83.3584 115.707 88.8513 115.707 95.6271C115.707 102.403 121.2 107.896 127.976 107.896Z" fill="#FF4500"/>
<path d="M136.159 95.6279C136.161 95.7959 136.141 95.9637 136.096 96.126C136.052 96.2882 135.985 96.4437 135.898 96.5873C135.81 96.7308 135.703 96.8615 135.579 96.9753C135.455 97.0891 135.316 97.1848 135.165 97.2596C135.169 97.3044 135.171 97.3495 135.173 97.3946C135.177 97.4845 135.177 97.5745 135.173 97.6645C135.171 97.7096 135.169 97.7546 135.165 97.7994C135.165 100.548 131.963 102.781 128.013 102.781C124.062 102.781 120.86 100.548 120.86 97.7994C120.857 97.7546 120.854 97.7096 120.852 97.6645C120.849 97.5745 120.849 97.4845 120.852 97.3946C120.854 97.3495 120.857 97.3044 120.86 97.2596C120.624 97.1511 120.414 96.9927 120.246 96.7953C120.077 96.5979 119.953 96.3661 119.883 96.1162C119.813 95.8661 119.798 95.6037 119.839 95.3473C119.881 95.0908 119.977 94.8464 120.122 94.631C120.267 94.4157 120.457 94.2344 120.68 94.0999C120.902 93.9654 121.15 93.8808 121.408 93.852C121.666 93.823 121.928 93.8506 122.174 93.9327C122.42 94.0147 122.646 94.1494 122.835 94.3274C123.186 94.0894 123.554 93.8771 123.936 93.6922C124.318 93.5075 124.713 93.3505 125.117 93.2229C125.522 93.0953 125.935 92.9974 126.354 92.9297C126.773 92.8619 127.196 92.8248 127.62 92.8183L128.528 88.5611C128.538 88.5117 128.558 88.4651 128.586 88.4234C128.615 88.3819 128.651 88.3464 128.693 88.3191C128.736 88.2918 128.783 88.2731 128.832 88.2639C128.882 88.255 128.933 88.2559 128.982 88.2666L131.988 88.8678C132.291 88.3467 132.928 88.1234 133.49 88.3405C134.052 88.5577 134.374 89.1512 134.248 89.7407C134.122 90.3302 133.587 90.7412 132.985 90.7102C132.383 90.6793 131.893 90.2155 131.828 89.6162L129.203 89.0641L128.405 92.8919C128.824 92.9008 129.242 92.9401 129.656 93.0091C130.484 93.1471 131.287 93.4039 132.042 93.7716C132.419 93.955 132.782 94.1654 133.129 94.401C133.378 94.1617 133.691 93.9997 134.03 93.9345C134.37 93.869 134.721 93.9032 135.041 94.0329C135.361 94.1625 135.637 94.3821 135.836 94.6651C136.034 94.9481 136.146 95.2825 136.159 95.6279ZM123.984 97.3243C124.045 97.4731 124.136 97.6083 124.25 97.7221C124.364 97.8362 124.499 97.9264 124.648 97.9884C124.796 98.0499 124.956 98.0816 125.117 98.0816C125.613 98.0816 126.061 97.7826 126.251 97.3243C126.441 96.8658 126.335 96.3382 125.985 95.9873C125.634 95.6364 125.106 95.5312 124.648 95.7211C124.189 95.9113 123.89 96.3585 123.89 96.8547C123.89 97.0158 123.922 97.1753 123.984 97.3243ZM131.01 100.269C131.073 100.208 131.109 100.124 131.11 100.037C131.112 99.9486 131.078 99.8639 131.016 99.8011C130.955 99.7382 130.871 99.7023 130.783 99.7011C130.695 99.6998 130.611 99.7339 130.54 99.787C130.355 99.9193 130.16 100.036 129.956 100.135C129.752 100.234 129.54 100.316 129.322 100.38C129.104 100.444 128.881 100.489 128.655 100.515C128.43 100.541 128.202 100.548 127.976 100.535C127.749 100.545 127.522 100.536 127.298 100.508C127.073 100.48 126.851 100.433 126.634 100.367C126.417 100.301 126.206 100.217 126.003 100.116C125.801 100.015 125.607 99.8965 125.424 99.7624C125.36 99.7103 125.28 99.6836 125.198 99.6876C125.115 99.6916 125.038 99.7262 124.979 99.7842C124.921 99.8425 124.887 99.9201 124.883 100.002C124.879 100.084 124.906 100.165 124.958 100.229C125.173 100.391 125.402 100.535 125.643 100.658C125.883 100.781 126.133 100.883 126.391 100.964C126.649 101.044 126.913 101.102 127.18 101.137C127.448 101.172 127.718 101.184 127.988 101.173C128.258 101.184 128.528 101.172 128.796 101.137C129.332 101.067 129.852 100.905 130.334 100.658C130.574 100.535 130.803 100.391 131.018 100.229L131.01 100.269ZM130.785 98.1798C130.952 98.1816 131.117 98.1494 131.27 98.0856C131.424 98.0215 131.563 97.927 131.679 97.8077C131.795 97.6884 131.885 97.5467 131.944 97.3912C132.004 97.2359 132.031 97.07 132.024 96.9038C132.024 96.4075 131.725 95.9603 131.267 95.7702C130.809 95.5803 130.281 95.6855 129.93 96.0364C129.579 96.3873 129.474 96.9148 129.664 97.3734C129.854 97.8316 130.301 98.1307 130.798 98.1307L130.785 98.1798Z" fill="white"/>
</g>
<rect x="173.5" y="65.5" width="81" height="60" rx="3.5" fill="#F9F9F9"/>
<rect x="173.5" y="65.5" width="81" height="60" rx="3.5" stroke="#F3F3F3"/>
<g clip-path="url(#clip5_782_9090)">
<path fill-rule="evenodd" clip-rule="evenodd" d="M213.977 83.3584C207.113 83.3584 201.793 88.3815 201.793 95.1655C201.793 98.7142 203.249 101.78 205.62 103.899C205.818 104.078 205.939 104.325 205.948 104.592L206.015 106.757C206.037 107.448 206.75 107.896 207.383 107.619L209.8 106.554C210.004 106.463 210.234 106.446 210.449 106.505C211.56 106.811 212.744 106.973 213.977 106.973C220.842 106.973 226.161 101.949 226.161 95.1655C226.161 88.3815 220.842 83.3584 213.977 83.3584Z" fill="url(#paint0_linear_782_9090)"/>
<path fill-rule="evenodd" clip-rule="evenodd" d="M206.663 98.6195L210.243 92.9475C210.811 92.0462 212.032 91.8208 212.885 92.4601L215.732 94.5932C215.859 94.6883 216.013 94.7394 216.172 94.739C216.331 94.7385 216.485 94.6865 216.612 94.5908L220.456 91.6763C220.968 91.287 221.64 91.9017 221.294 92.4454L217.717 98.115C217.149 99.0163 215.928 99.2416 215.075 98.6024L212.228 96.4692C212.101 96.3742 211.947 96.3231 211.788 96.3235C211.629 96.324 211.475 96.376 211.348 96.4717L207.502 99.3886C206.989 99.778 206.318 99.1632 206.663 98.6195Z" fill="white"/>
</g>
<rect x="0.5" y="130.5" width="81" height="59" rx="3.5" fill="#F9F9F9"/>
<rect x="0.5" y="130.5" width="81" height="59" rx="3.5" stroke="#F3F3F3"/>
<g clip-path="url(#clip6_782_9090)">
<path d="M41.2101 171.794C47.986 171.794 53.4789 166.301 53.4789 159.526C53.4789 152.75 47.986 147.257 41.2101 147.257C34.4343 147.257 28.9414 152.75 28.9414 159.526C28.9414 166.301 34.4343 171.794 41.2101 171.794Z" fill="#3C5A9A"/>
<path d="M45.1994 151.023L42.4816 151.023C40.8688 151.023 39.0748 151.702 39.0748 154.04C39.0827 154.854 39.0748 155.634 39.0748 156.512L37.209 156.512L37.209 159.482L39.1326 159.482L39.1326 168.029L42.6673 168.029L42.6673 159.425L45.0003 159.425L45.2114 156.504L42.6064 156.504C42.6064 156.504 42.6122 155.205 42.6064 154.827C42.6064 153.903 43.5677 153.956 43.6255 153.956C44.083 153.956 44.9724 153.958 45.2008 153.956L45.2008 151.023L45.1994 151.023Z" fill="white"/>
</g>
<rect x="86.5" y="130.5" width="82" height="59" rx="3.5" fill="#F9F9F9"/>
<rect x="86.5" y="130.5" width="82" height="59" rx="3.5" stroke="#F3F3F3"/>
<path d="M134.11 148.894L121.841 148.894C119.3 148.894 117.24 150.953 117.24 153.494L117.24 165.763C117.24 168.304 119.3 170.364 121.841 170.364L134.11 170.364C136.651 170.364 138.711 168.304 138.711 165.763L138.711 153.494C138.711 150.953 136.651 148.894 134.11 148.894Z" fill="url(#paint1_radial_782_9090)"/>
<path d="M134.11 148.894L121.841 148.894C119.3 148.894 117.24 150.953 117.24 153.494L117.24 165.763C117.24 168.304 119.3 170.364 121.841 170.364L134.11 170.364C136.651 170.364 138.711 168.304 138.711 165.763L138.711 153.494C138.711 150.953 136.651 148.894 134.11 148.894Z" fill="url(#paint2_radial_782_9090)"/>
<path d="M134.11 148.894L121.841 148.894C119.3 148.894 117.24 150.953 117.24 153.494L117.24 165.763C117.24 168.304 119.3 170.364 121.841 170.364L134.11 170.364C136.651 170.364 138.711 168.304 138.711 165.763L138.711 153.494C138.711 150.953 136.651 148.894 134.11 148.894Z" fill="url(#paint3_radial_782_9090)"/>
<path d="M133.345 155.409C133.345 156.044 132.83 156.559 132.195 156.559C131.56 156.559 131.045 156.044 131.045 155.409C131.045 154.774 131.56 154.259 132.195 154.259C132.83 154.259 133.345 154.774 133.345 155.409Z" fill="white"/>
<path fill-rule="evenodd" clip-rule="evenodd" d="M127.979 163.462C130.096 163.462 131.812 161.745 131.812 159.628C131.812 157.51 130.096 155.794 127.979 155.794C125.861 155.794 124.145 157.51 124.145 159.628C124.145 161.745 125.861 163.462 127.979 163.462ZM127.979 161.928C129.249 161.928 130.279 160.898 130.279 159.628C130.279 158.357 129.249 157.328 127.979 157.328C126.708 157.328 125.678 158.357 125.678 159.628C125.678 160.898 126.708 161.928 127.979 161.928Z" fill="white"/>
<path fill-rule="evenodd" clip-rule="evenodd" d="M120.309 159.321C120.309 156.745 120.309 155.456 120.81 154.472C121.251 153.606 121.955 152.903 122.821 152.461C123.805 151.96 125.093 151.96 127.67 151.96L128.283 151.96C130.86 151.96 132.148 151.96 133.132 152.461C133.998 152.903 134.702 153.606 135.143 154.472C135.645 155.456 135.645 156.745 135.645 159.321L135.645 159.935C135.645 162.511 135.645 163.8 135.143 164.784C134.702 165.649 133.998 166.353 133.132 166.794C132.148 167.296 130.86 167.296 128.283 167.296L127.67 167.296C125.093 167.296 123.805 167.296 122.821 166.794C121.955 166.353 121.251 165.649 120.81 164.784C120.309 163.8 120.309 162.511 120.309 159.935L120.309 159.321ZM127.67 153.494L128.283 153.494C129.597 153.494 130.49 153.495 131.18 153.551C131.853 153.606 132.196 153.706 132.436 153.828C133.013 154.122 133.483 154.591 133.777 155.168C133.899 155.408 133.998 155.752 134.053 156.424C134.11 157.115 134.111 158.008 134.111 159.321L134.111 159.935C134.111 161.248 134.11 162.141 134.053 162.832C133.998 163.504 133.899 163.848 133.777 164.088C133.483 164.665 133.013 165.134 132.436 165.428C132.196 165.55 131.853 165.65 131.18 165.705C130.49 165.761 129.597 165.762 128.283 165.762L127.67 165.762C126.356 165.762 125.463 165.761 124.773 165.705C124.101 165.65 123.757 165.55 123.517 165.428C122.94 165.134 122.471 164.665 122.176 164.088C122.054 163.848 121.955 163.504 121.9 162.832C121.843 162.141 121.842 161.248 121.842 159.935L121.842 159.321C121.842 158.008 121.843 157.115 121.9 156.424C121.955 155.752 122.054 155.408 122.176 155.168C122.471 154.591 122.94 154.122 123.517 153.828C123.757 153.706 124.101 153.606 124.773 153.551C125.463 153.495 126.356 153.494 127.67 153.494Z" fill="white"/>
<rect x="173.5" y="130.5" width="81" height="59" rx="3.5" fill="#F9F9F9"/>
<rect x="173.5" y="130.5" width="81" height="59" rx="3.5" stroke="#F3F3F3"/>
<g clip-path="url(#clip7_782_9090)">
<path d="M222.574 151.417C225.232 155.324 226.544 159.731 226.053 164.804C226.051 164.825 226.04 164.845 226.022 164.858C224.01 166.336 222.061 167.232 220.138 167.827C220.123 167.831 220.107 167.831 220.093 167.826C220.078 167.821 220.065 167.812 220.056 167.799C219.612 167.181 219.208 166.53 218.855 165.846C218.834 165.805 218.853 165.757 218.895 165.741C219.536 165.499 220.145 165.21 220.731 164.867C220.777 164.84 220.78 164.774 220.737 164.742C220.613 164.65 220.49 164.553 220.372 164.456C220.35 164.438 220.32 164.435 220.295 164.447C216.49 166.204 212.321 166.204 208.471 164.447C208.446 164.435 208.416 164.439 208.395 164.457C208.277 164.554 208.154 164.65 208.031 164.742C207.988 164.774 207.991 164.84 208.038 164.867C208.624 165.204 209.233 165.499 209.873 165.742C209.915 165.758 209.935 165.805 209.914 165.846C209.568 166.531 209.165 167.182 208.712 167.8C208.693 167.825 208.66 167.836 208.63 167.827C206.717 167.232 204.767 166.336 202.755 164.858C202.738 164.845 202.726 164.825 202.724 164.803C202.314 160.415 203.15 155.972 206.2 151.416C206.207 151.404 206.218 151.395 206.231 151.389C207.732 150.701 209.34 150.194 211.02 149.905C211.051 149.9 211.081 149.914 211.097 149.941C211.305 150.309 211.542 150.78 211.703 151.165C213.474 150.895 215.273 150.895 217.082 151.165C217.242 150.788 217.471 150.309 217.678 149.941C217.685 149.928 217.697 149.917 217.711 149.91C217.724 149.904 217.74 149.902 217.755 149.905C219.436 150.195 221.044 150.702 222.544 151.389C222.557 151.395 222.568 151.404 222.574 151.417ZM212.603 159.761C212.622 158.464 211.676 157.39 210.489 157.39C209.311 157.39 208.375 158.454 208.375 159.761C208.375 161.067 209.33 162.131 210.489 162.131C211.667 162.131 212.603 161.067 212.603 159.761ZM220.421 159.761C220.44 158.464 219.494 157.39 218.307 157.39C217.129 157.39 216.192 158.454 216.192 159.761C216.192 161.067 217.147 162.131 218.307 162.131C219.494 162.131 220.421 161.067 220.421 159.761Z" fill="#5865F2"/>
</g>
<defs>
<linearGradient id="paint0_linear_782_9090" x1="5109.28" y1="83.3584" x2="5109.28" y2="9888.45" gradientUnits="userSpaceOnUse">
<stop stop-color="#00B2FF"/>
<stop offset="1" stop-color="#006AFF"/>
</linearGradient>
<radialGradient id="paint1_radial_782_9090" cx="0" cy="0" r="1" gradientUnits="userSpaceOnUse" gradientTransform="translate(124.908 164.996) rotate(-55.3758) scale(19.5683)">
<stop stop-color="#B13589"/>
<stop offset="0.79309" stop-color="#C62F94"/>
<stop offset="1" stop-color="#8A3AC8"/>
</radialGradient>
<radialGradient id="paint2_radial_782_9090" cx="0" cy="0" r="1" gradientUnits="userSpaceOnUse" gradientTransform="translate(124.141 171.131) rotate(-65.1363) scale(17.3251)">
<stop stop-color="#E0E8B7"/>
<stop offset="0.444662" stop-color="#FB8A2E"/>
<stop offset="0.71474" stop-color="#E2425C"/>
<stop offset="1" stop-color="#E2425C" stop-opacity="0"/>
</radialGradient>
<radialGradient id="paint3_radial_782_9090" cx="0" cy="0" r="1" gradientUnits="userSpaceOnUse" gradientTransform="translate(116.09 149.66) rotate(-8.1301) scale(29.8214 6.37848)">
<stop offset="0.156701" stop-color="#406ADC"/>
<stop offset="0.467799" stop-color="#6A45BE"/>
<stop offset="1" stop-color="#6A45BE" stop-opacity="0"/>
</radialGradient>
<clipPath id="clip0_782_9090">
<rect width="32.7166" height="32.7166" fill="white" transform="translate(24.4746 13.0264)"/>
</clipPath>
<clipPath id="clip1_782_9090">
<rect width="24.5375" height="22.1819" fill="white" transform="translate(116.037 18.1807)"/>
</clipPath>
<clipPath id="clip2_782_9090">
<rect width="24.156" height="24.156" fill="white" transform="translate(202.303 17.3213)"/>
</clipPath>
<clipPath id="clip3_782_9090">
<rect width="24.5375" height="24.5375" fill="white" transform="translate(29.2598 83.1348)"/>
</clipPath>
<clipPath id="clip4_782_9090">
<rect width="24.5375" height="24.5375" fill="white" transform="translate(115.707 83.3584)"/>
</clipPath>
<clipPath id="clip5_782_9090">
<rect width="24.5375" height="24.5375" fill="white" transform="translate(201.711 83.3574)"/>
</clipPath>
<clipPath id="clip6_782_9090">
<rect width="24.5375" height="24.5375" fill="white" transform="translate(28.9414 147.257)"/>
</clipPath>
<clipPath id="clip7_782_9090">
<rect width="24.5375" height="17.9418" fill="white" transform="translate(202.162 149.896)"/>
</clipPath>
</defs>
</svg>
