<svg width="20" height="21" viewBox="0 0 20 21" fill="none" xmlns="http://www.w3.org/2000/svg">
<path fill-rule="evenodd" clip-rule="evenodd" d="M15.3334 10.3298C15.3334 12.6709 14.2388 14.7525 12.5425 16.0747C13.1189 16.5582 13.8585 16.8499 14.6666 16.8499C15.1597 16.8499 15.6267 16.7414 16.0469 16.5478C16.1337 16.507 16.2309 16.4966 16.3246 16.5174L16.3637 16.5279L17.4957 16.889L17.2847 15.8143C17.2604 15.6902 17.2882 15.5617 17.362 15.4593C17.763 14.902 18 14.2162 18 13.4732C18 11.8395 16.8542 10.4767 15.3307 10.164C15.3324 10.2187 15.3334 10.2743 15.3334 10.3298ZM8.22226 4C4.78646 4 2 6.83335 2 10.3298C2 11.723 2.44271 13.0096 3.19185 14.0547C3.26477 14.1572 3.29254 14.2856 3.26824 14.4089L2.78299 16.888L5.32812 16.0729C5.43315 16.0399 5.54687 16.0469 5.6467 16.0929C6.43055 16.4566 7.30295 16.6597 8.22227 16.6597C11.6581 16.6597 14.4445 13.8255 14.4445 10.3299C14.4445 6.83345 11.6581 4 8.22226 4Z" fill="white"/>
</svg>
